<?xml version="1.0" encoding="UTF-8"?>
<svg width="800" height="600" viewBox="0 0 800 600" fill="none" xmlns="http://www.w3.org/2000/svg">
  <!-- Brain with heart icon -->
  <circle cx="400" cy="300" r="150" fill="#EBF5FF"/>
  <path d="M400 200C355.817 200 320 235.817 320 280C320 324.183 355.817 360 400 360C444.183 360 480 324.183 480 280C480 235.817 444.183 200 400 200ZM400 340C366.863 340 340 313.137 340 280C340 246.863 366.863 220 400 220C433.137 220 460 246.863 460 280C460 313.137 433.137 340 400 340Z" fill="#3B82F6"/>
  <path d="M400 240C378.954 240 362 256.954 362 278C362 299.046 378.954 316 400 316C421.046 316 438 299.046 438 278C438 256.954 421.046 240 400 240Z" fill="#3B82F6"/>
  <!-- Heart -->
  <path d="M400 290C400 290 380 270 360 270C340 270 320 290 320 310C320 330 340 350 400 390C460 350 480 330 480 310C480 290 460 270 440 270C420 270 400 290 400 290Z" fill="#EF4444"/>
  <!-- Supporting hands -->
  <path d="M280 400C280 400 320 380 400 380C480 380 520 400 520 400" stroke="#3B82F6" stroke-width="20" stroke-linecap="round"/>
  <!-- Decorative elements -->
  <circle cx="250" cy="200" r="10" fill="#3B82F6"/>
  <circle cx="550" cy="200" r="10" fill="#3B82F6"/>
  <circle cx="250" cy="400" r="10" fill="#3B82F6"/>
  <circle cx="550" cy="400" r="10" fill="#3B82F6"/>
</svg> 